<svg width="51.666626" height="45.916656" viewBox="0 0 51.6666 45.9167" fill="none" xmlns="http://www.w3.org/2000/svg" xmlns:xlink="http://www.w3.org/1999/xlink">
	<desc>
			Created with Pixso.
	</desc>
	<defs/>
	<path id="Vector" d="M46.5 9.66666L38.75 9.66666L38.75 4.83334C38.75 2.15085 36.4508 0 33.5834 0L18.0834 0C15.2158 0 12.9166 2.15085 12.9166 4.83334L12.9166 9.66666L5.16663 9.66666C2.29919 9.66666 0 11.8175 0 14.5L0 41.0833C0 43.7658 2.29919 45.9167 5.16663 45.9167L46.5 45.9167C49.3676 45.9167 51.6666 43.7658 51.6666 41.0833L51.6666 14.5C51.6666 11.8175 49.3676 9.66666 46.5 9.66666ZM18.0834 4.83334L33.5834 4.83334L33.5834 9.66666L18.0834 9.66666L18.0834 4.83334ZM46.5 41.0833L5.16663 41.0833L5.16663 36.25L46.5 36.25L46.5 41.0833ZM46.5 29L5.16663 29L5.16663 14.5L12.9166 14.5L12.9166 19.3333L18.0834 19.3333L18.0834 14.5L33.5834 14.5L33.5834 19.3333L38.75 19.3333L38.75 14.5L46.5 14.5L46.5 29Z" fill="#21408E" fill-opacity="1.000000" fill-rule="nonzero"/>
</svg>
