<svg width="20.000000" height="20.000000" viewBox="0 0 20 20" fill="none" xmlns="http://www.w3.org/2000/svg" xmlns:xlink="http://www.w3.org/1999/xlink">
	<desc>
			Created with Pixso.
	</desc>
	<defs/>
	<path id="Vector" d="M7 14L9 14L9 6L7 6L7 14ZM10 0C4.47998 0 0 4.48001 0 10C0 15.52 4.47998 20 10 20C15.52 20 20 15.52 20 10C20 4.48001 15.52 0 10 0ZM10 18C5.58997 18 2 14.41 2 10C2 5.59 5.58997 2 10 2C14.41 2 18 5.59 18 10C18 14.41 14.41 18 10 18ZM11 14L13 14L13 6L11 6L11 14Z" fill="#F1BC00" fill-opacity="1.000000" fill-rule="nonzero"/>
</svg>
