<svg width="20.000000" height="20.000000" viewBox="0 0 20 20" fill="none" xmlns="http://www.w3.org/2000/svg" xmlns:xlink="http://www.w3.org/1999/xlink">
	<desc>
			Created with Pixso.
	</desc>
	<defs/>
	<path id="Vector" d="M19.1151 4.70001L19.1273 4.6889L14.6182 0.555542L13.3334 1.73334L15.8909 4.07779C14.7515 4.47778 13.9395 5.47778 13.9395 6.66666C13.9395 8.20001 15.297 9.44446 16.9697 9.44446C17.406 9.44446 17.806 9.35556 18.1818 9.21112L18.1818 17.2222C18.1818 17.8333 17.6364 18.3333 16.9697 18.3333C16.303 18.3333 15.7576 17.8333 15.7576 17.2222L15.7576 12.2222C15.7576 11 14.6666 10 13.3334 10L12.1212 10L12.1212 2.22223C12.1212 1 11.0303 0 9.69702 0L2.42419 0C1.09094 0 0 1 0 2.22223L0 20L12.1212 20L12.1212 11.6667L13.9395 11.6667L13.9395 17.2222C13.9395 18.7556 15.297 20 16.9697 20C18.6425 20 20 18.7556 20 17.2222L20 6.66666C20 5.89999 19.6606 5.20001 19.1151 4.70001ZM16.9697 7.77777C16.303 7.77777 15.7576 7.27777 15.7576 6.66666C15.7576 6.05554 16.303 5.55554 16.9697 5.55554C17.6364 5.55554 18.1818 6.05554 18.1818 6.66666C18.1818 7.27777 17.6364 7.77777 16.9697 7.77777ZM4.84851 16.6667L4.84851 11.6667L2.42419 11.6667L7.27271 3.33334L7.27271 8.88889L9.69702 8.88889L4.84851 16.6667Z" fill="#F1BC00" fill-opacity="1.000000" fill-rule="nonzero"/>
</svg>
