<svg width="144.000000" height="120.000000" viewBox="0 0 144 120" fill="none" xmlns="http://www.w3.org/2000/svg" xmlns:xlink="http://www.w3.org/1999/xlink">
	<desc>
			Created with Pixso.
	</desc>
	<defs/>
	<path id="Vector" d="M72.8527 0.498169C87.7159 3.14774 92.3323 19.5139 104.227 27.6561C115.319 35.2491 132.825 35.4991 139.639 46.2145C146.795 57.4666 143.865 71.4077 139.923 83.7863C135.828 96.6478 130.497 110.984 116.967 117.413C103.745 123.695 87.8941 116.694 72.8527 115.653C59.3882 114.72 45.2586 117.524 33.5953 111.638C21.3147 105.44 13.7665 94.4227 8.30603 83.0779C2.44397 70.899 -2.6087 57.6354 1.48688 44.9291C5.66467 31.9678 17.7761 22.3639 30.4113 14.4975C43.0048 6.65701 57.6498 -2.21198 72.8527 0.498169Z" fill="#F1BC00" fill-opacity="1.000000" fill-rule="evenodd"/>
</svg>
